<?xml version="1.0" encoding="UTF-8"?>
<svg width="18px" height="23px" viewBox="0 0 18 23" version="1.1" xmlns="http://www.w3.org/2000/svg" xmlns:xlink="http://www.w3.org/1999/xlink">
    <title>location-filled</title>
    <g id="Page-1" stroke="none" stroke-width="1" fill="none" fill-rule="evenodd">
        <g id="location-filled" fill="#000000" fill-rule="nonzero">
            <path d="M7.115,20.8110001 C7.721,21.3110001 8.353,21.7680001 9,22.2140001 C9.64839581,21.77391 10.2773246,21.3058001 10.885,20.8110001 C11.8980005,19.9792197 12.851345,19.0773351 13.738,18.1120001 C15.782,15.8770001 18,12.6370001 18,9 C18,5.78460979 16.2846097,2.81346657 13.5,1.20577139 C10.7153903,-0.401923796 7.28460967,-0.401923796 4.5,1.20577139 C1.71539025,2.81346657 4.4408921e-16,5.78460979 4.4408921e-16,9 C4.4408921e-16,12.6370001 2.218,15.8760001 4.262,18.1120001 C5.14862006,19.0776794 6.10196537,19.9798989 7.115,20.8120001 M9,12.2500001 C7.20507456,12.2500001 5.75,10.7949256 5.75,9.00000013 C5.75,7.2050747 7.20507456,5.75000013 9,5.75000013 C10.7949254,5.75000013 12.25,7.2050747 12.25,9.00000013 C12.25,10.7949256 10.7949254,12.2500001 9,12.2500001" id="Shape"></path>
        </g>
    </g>
</svg>