<?xml version="1.0" encoding="UTF-8"?>
<svg width="18px" height="18px" viewBox="0 0 18 18" version="1.1" xmlns="http://www.w3.org/2000/svg" xmlns:xlink="http://www.w3.org/1999/xlink">
    <title>Group</title>
    <g id="Page-1" stroke="none" stroke-width="1" fill="none" fill-rule="evenodd">
        <g id="Group" fill="#000000" fill-rule="nonzero">
            <path d="M16.95,18 C14.8666667,18 12.8083333,17.546 10.775,16.638 C8.74166667,15.73 6.89166667,14.4423333 5.225,12.775 C3.55833333,11.1076667 2.271,9.25766667 1.363,7.225 C0.455,5.19233333 0.000666666667,3.134 0,1.05 C0,0.75 0.1,0.5 0.3,0.3 C0.5,0.1 0.75,0 1.05,0 L5.1,0 C5.33333333,0 5.54166667,0.0793333333 5.725,0.238 C5.90833333,0.396666667 6.01666667,0.584 6.05,0.8 L6.7,4.3 C6.73333333,4.56666667 6.725,4.79166667 6.675,4.975 C6.625,5.15833333 6.53333333,5.31666667 6.4,5.45 L3.975,7.9 C4.30833333,8.51666667 4.704,9.11233333 5.162,9.687 C5.62,10.2616667 6.12433333,10.816 6.675,11.35 C7.19166667,11.8666667 7.73333333,12.346 8.3,12.788 C8.86666667,13.23 9.46666667,13.634 10.1,14 L12.45,11.65 C12.6,11.5 12.796,11.3876667 13.038,11.313 C13.28,11.2383333 13.5173333,11.2173333 13.75,11.25 L17.2,11.95 C17.4333333,12.0166667 17.625,12.1376667 17.775,12.313 C17.925,12.4883333 18,12.684 18,12.9 L18,16.95 C18,17.25 17.9,17.5 17.7,17.7 C17.5,17.9 17.25,18 16.95,18" id="Path"></path>
        </g>
    </g>
</svg>